<svg width="39" height="33" viewBox="0 0 39 33" fill="none" xmlns="http://www.w3.org/2000/svg">
<path d="M0.769531 14.4203C0.769531 9.11838 5.0676 4.82031 10.3695 4.82031H28.5029C33.8048 4.82031 38.1029 9.11838 38.1029 14.4203V22.9536C38.1029 28.2556 33.8048 32.5536 28.5029 32.5536H10.3695C5.06759 32.5536 0.769531 28.2556 0.769531 22.9536V14.4203Z" fill="#5B67EA"/>
<path d="M15.6813 1.51905C20.5205 -1.23444 23.6259 0.456288 24.4794 1.51904C26.6915 4.27348 24.3795 7.07446 18.4377 7.21937C13.8867 7.33036 9.21391 5.1454 7.4375 3.8894C7.4375 3.8894 10.6521 4.3807 15.6813 1.51905Z" fill="#86D558"/>
<path d="M19.3516 3.66096C21.7555 3.66096 24.9803 3.12285 26.5047 0.425781" stroke="#6A9750" stroke-width="0.8" stroke-linecap="round"/>
<path d="M3.96875 14.4195C3.96875 10.8849 6.83413 8.01953 10.3688 8.01953H24.7688C28.3034 8.01953 31.1687 10.8849 31.1687 14.4195V22.9529C31.1687 26.4875 28.3034 29.3529 24.7687 29.3529H10.3687C6.83412 29.3529 3.96875 26.4875 3.96875 22.9529V14.4195Z" fill="#8891F2"/>
<path d="M17.2262 23.0754C17.3541 23.164 17.5235 23.164 17.6514 23.0754L19.3438 21.9029C19.6446 21.6945 19.4971 21.2227 19.1311 21.2227L15.7465 21.2227C15.3805 21.2227 15.2331 21.6945 15.5339 21.9029L17.2262 23.0754Z" fill="black"/>
<circle cx="10.8977" cy="14.9523" r="4.8" fill="#F0F1FF"/>
<path fill-rule="evenodd" clip-rule="evenodd" d="M6.10359 15.1591C6.10069 15.0906 6.09922 15.0216 6.09922 14.9523C6.09922 14.8831 6.10069 14.8141 6.10359 14.7455V15.1591ZM10.1036 19.6867C10.3624 19.7299 10.6282 19.7523 10.8992 19.7523C13.5502 19.7523 15.6992 17.6033 15.6992 14.9523C15.6992 12.3014 13.5502 10.1523 10.8992 10.1523C10.6282 10.1523 10.3624 10.1748 10.1036 10.218V19.6867Z" fill="black"/>
<circle cx="21.5656" cy="14.9523" r="4.8" fill="#F0F1FF"/>
<path fill-rule="evenodd" clip-rule="evenodd" d="M16.7716 15.1591C16.7687 15.0906 16.7672 15.0216 16.7672 14.9523C16.7672 14.8831 16.7687 14.8141 16.7716 14.7455V15.1591ZM20.7716 19.6867C21.0304 19.7299 21.2961 19.7523 21.5672 19.7523C24.2182 19.7523 26.3672 17.6033 26.3672 14.9523C26.3672 12.3014 24.2182 10.1523 21.5672 10.1523C21.2961 10.1523 21.0304 10.1748 20.7716 10.218V19.6867Z" fill="black"/>
</svg>
